<svg width="20" height="19" viewBox="0 0 20 19" fill="none" xmlns="http://www.w3.org/2000/svg">
<path fill-rule="evenodd" clip-rule="evenodd" d="M14.9395 0.378906C16.2805 0.378906 17.5705 0.908906 18.5195 1.85991C19.4695 2.80891 20.0005 4.08891 20.0005 5.42891V13.3289C20.0005 16.1189 17.7305 18.3789 14.9395 18.3789H5.06049C2.26949 18.3789 0.000488281 16.1189 0.000488281 13.3289V5.42891C0.000488281 2.63891 2.25949 0.378906 5.06049 0.378906H14.9395ZM16.5305 6.91891L16.6105 6.83891C16.8495 6.54891 16.8495 6.12891 16.5995 5.83891C16.4605 5.68991 16.2695 5.59891 16.0705 5.57891C15.8605 5.56791 15.6605 5.63891 15.5095 5.77891L11.0005 9.37891C10.4205 9.85991 9.5895 9.85991 9.0005 9.37891L4.50049 5.77891C4.18949 5.54891 3.75949 5.57891 3.50049 5.84891C3.23049 6.11891 3.20049 6.54891 3.42949 6.84891L3.56049 6.97891L8.1105 10.5289C8.6705 10.9689 9.3495 11.2089 10.0605 11.2089C10.7695 11.2089 11.4605 10.9689 12.0195 10.5289L16.5305 6.91891Z" fill="#191825" fill-opacity="0.75"/>
</svg>
