<svg width="32" height="33" viewBox="0 0 32 33" fill="none" xmlns="http://www.w3.org/2000/svg">
<path d="M16 0.378906C7.1808 0.378906 0 7.55971 0 16.3789C0 25.1981 7.1808 32.3789 16 32.3789C24.8192 32.3789 32 25.2045 32 16.3789C32 7.55331 24.8256 0.378906 16 0.378906ZM20.4352 9.87011C20.4352 10.0045 20.3264 10.1133 20.192 10.1133H18.2656C17.792 10.1133 17.408 10.4973 17.408 10.9709V12.9869H20.1472C20.1536 12.9869 20.16 12.9869 20.1664 12.9869C20.3008 12.9997 20.3968 13.1149 20.384 13.2493L20.1408 16.0909C20.128 16.2189 20.0256 16.3149 19.8976 16.3149H17.4016V25.7421C17.4016 25.8765 17.2928 25.9853 17.1584 25.9853H13.7152C13.5808 25.9853 13.472 25.8765 13.472 25.7421V16.4557V16.3021H11.7504C11.616 16.3021 11.5072 16.1933 11.5072 16.0589V13.2173C11.5072 13.0829 11.616 12.9741 11.7504 12.9741H13.472V10.2349C13.472 8.32771 15.0208 6.77891 16.928 6.77891H20.1792C20.3136 6.77891 20.4224 6.88771 20.4224 7.02211V9.87011H20.4352Z" fill="#5D50C6"/>
</svg>
