<svg width="32" height="33" viewBox="0 0 32 33" fill="none" xmlns="http://www.w3.org/2000/svg">
<path d="M16 32.3789C24.8366 32.3789 32 25.2155 32 16.3789C32 7.54235 24.8366 0.378906 16 0.378906C7.16344 0.378906 0 7.54235 0 16.3789C0 25.2155 7.16344 32.3789 16 32.3789Z" fill="#5D50C6"/>
<path d="M20.8 8.57812H11.2C9.53328 8.57812 8.19995 9.91145 8.19995 11.5781V21.1781C8.19995 22.8448 9.53328 24.1781 11.2 24.1781H20.8C22.4666 24.1781 23.8 22.8448 23.8 21.1781V11.5781C23.8 9.91145 22.4666 8.57812 20.8 8.57812ZM21.6666 10.3781H22V13.0448H19.3333V10.3781H21.6666ZM13.8 14.7781C14.2666 14.1115 15.1333 13.6448 16 13.6448C16.8666 13.6448 17.7333 14.1115 18.2 14.7781C18.5333 15.2448 18.7333 15.7781 18.7333 16.3781C18.7333 17.9115 17.4666 19.1115 16 19.1115C14.5333 19.1115 13.2666 17.9115 13.2666 16.3781C13.2666 15.7781 13.4666 15.2448 13.8 14.7781ZM22.2666 21.1781C22.2666 21.9781 21.6 22.6448 20.8 22.6448H11.2C10.4 22.6448 9.73329 21.9781 9.73329 21.1781V14.7781H12.0666C11.8666 15.2448 11.7333 15.8448 11.7333 16.3781C11.7333 18.7115 13.6666 20.6448 16 20.6448C18.3333 20.6448 20.2666 18.7115 20.2666 16.3781C20.2666 15.8448 20.1333 15.2448 19.9333 14.7781H22.2666L22.2666 21.1781Z" fill="white"/>
</svg>
