<svg width="32" height="33" viewBox="0 0 32 33" fill="none" xmlns="http://www.w3.org/2000/svg">
<path d="M16 32.3789C24.8366 32.3789 32 25.2155 32 16.3789C32 7.54235 24.8366 0.378906 16 0.378906C7.16344 0.378906 0 7.54235 0 16.3789C0 25.2155 7.16344 32.3789 16 32.3789Z" fill="#5D50C6"/>
<path d="M25.8005 11.8774C25.1149 12.1815 24.3773 12.3871 23.6038 12.4789C24.3935 12.0058 24.9996 11.2571 25.2857 10.3635C24.5467 10.8019 23.7279 11.1199 22.8571 11.2913C22.1595 10.5483 21.1655 10.084 20.0648 10.084C17.9531 10.084 16.2404 11.7967 16.2404 13.9084C16.2404 14.2082 16.2743 14.5 16.3399 14.7801C13.1615 14.6206 10.3433 13.0981 8.45687 10.7836C8.12773 11.3483 7.93892 12.0058 7.93892 12.7065C7.93892 14.0331 8.61459 15.2042 9.64022 15.8898C9.01361 15.8701 8.4235 15.6982 7.90811 15.4109C7.90783 15.4272 7.90783 15.4435 7.90783 15.4594C7.90783 17.3125 9.22666 18.8581 10.9759 19.2092C10.6553 19.297 10.3168 19.3435 9.96851 19.3435C9.72151 19.3435 9.48222 19.3198 9.24891 19.2753C9.73549 20.7944 11.1476 21.9002 12.8215 21.9313C11.5124 22.9572 9.86355 23.5684 8.07126 23.5684C7.76322 23.5684 7.45804 23.5504 7.15942 23.5148C8.85103 24.6003 10.8618 25.2332 13.0215 25.2332C20.056 25.2332 23.903 19.4057 23.903 14.3514C23.903 14.1857 23.8993 14.0205 23.8919 13.8568C24.6397 13.3178 25.288 12.6444 25.8005 11.8774Z" fill="#F1F2F2"/>
</svg>
