<svg width="40" height="33" viewBox="0 0 40 33" fill="none" xmlns="http://www.w3.org/2000/svg">
<path fill-rule="evenodd" clip-rule="evenodd" d="M39.5744 13.4589C39.3036 13.7221 38.9362 13.8723 38.5494 13.8723C37.118 13.8723 35.9574 14.9999 35.9574 16.3715C35.9574 17.7525 37.1044 18.8743 38.5222 18.8895C39.321 18.8969 40 19.4381 40 20.2141V25.0339C40 29.0907 36.615 32.3809 32.4372 32.3809H26.1316C25.4796 32.3809 24.9516 31.8679 24.9516 31.2347V27.1759C24.9516 26.3867 24.3134 25.7667 23.501 25.7667C22.708 25.7667 22.0502 26.3867 22.0502 27.1759V31.2347C22.0502 31.8679 21.5222 32.3809 20.8724 32.3809H7.56286C3.40426 32.3809 0 29.0925 0 25.0339V20.2141C0 19.4381 0.67892 18.8969 1.47776 18.8895C2.89748 18.8743 4.04256 17.7525 4.04256 16.3715C4.04256 15.0373 2.9207 14.0227 1.45068 14.0227C1.06382 14.0227 0.69632 13.8723 0.42554 13.6093C0.15474 13.3463 0 12.9893 0 12.6135V7.74668C0 3.69548 3.412 0.380859 7.5822 0.380859H20.8724C21.5222 0.380859 22.0502 0.89384 22.0502 1.52708V6.3374C22.0502 7.10782 22.708 7.74668 23.501 7.74668C24.3134 7.74668 24.9516 7.10782 24.9516 6.3374V1.52708C24.9516 0.89384 25.4796 0.380859 26.1316 0.380859H32.4372C36.615 0.380859 40 3.66918 40 7.7279V12.4631C40 12.8389 39.8452 13.1959 39.5744 13.4589ZM23.501 22.1213C24.3134 22.1213 24.9516 21.4825 24.9516 20.7121V13.1959C24.9516 12.4255 24.3134 11.7866 23.501 11.7866C22.708 11.7866 22.0502 12.4255 22.0502 13.1959V20.7121C22.0502 21.4825 22.708 22.1213 23.501 22.1213Z" fill="white"/>
</svg>
