<svg width="48" height="49" viewBox="0 0 48 49" fill="none" xmlns="http://www.w3.org/2000/svg">
<path fill-rule="evenodd" clip-rule="evenodd" d="M7 21.0165C7 11.8166 14.6878 4.38086 23.9868 4.38086C33.3122 4.38086 41 11.8166 41 21.0165C41 25.6523 39.314 29.9561 36.539 33.6041C33.4776 37.6279 29.7044 41.1339 25.457 43.8857C24.485 44.5217 23.6078 44.5697 22.5408 43.8857C18.2695 41.1339 14.4962 37.6279 11.461 33.6041C8.68396 29.9561 7 25.6523 7 21.0165ZM18.3885 21.5345C18.3885 24.6163 20.9034 27.0403 23.9868 27.0403C27.0724 27.0403 29.6116 24.6163 29.6116 21.5345C29.6116 18.4765 27.0724 15.9345 23.9868 15.9345C20.9034 15.9345 18.3885 18.4765 18.3885 21.5345Z" fill="white"/>
</svg>
