<svg width="36" height="41" viewBox="0 0 36 41" fill="none" xmlns="http://www.w3.org/2000/svg">
<path fill-rule="evenodd" clip-rule="evenodd" d="M26.8218 1.9181L26.8238 3.41734C32.333 3.84912 35.9724 7.60324 35.9782 13.3604L36 30.2119C36.0078 36.4889 32.0644 40.3509 25.7436 40.3609L10.3038 40.3809C4.02237 40.3889 0.0296332 36.4349 0.0217332 30.1399L1.33041e-05 13.4863C-0.0078867 7.6912 3.50305 3.94708 9.01233 3.44134L9.01035 1.94208C9.00839 1.06252 9.66001 0.400864 10.5289 0.400864C11.3977 0.398864 12.0494 1.05852 12.0513 1.93808L12.0533 3.33738L23.7828 3.3214L23.7808 1.9221C23.7788 1.04254 24.4304 0.382864 25.2994 0.380864C26.1484 0.378864 26.8198 1.03854 26.8218 1.9181ZM3.04295 14.104L32.9392 14.064V13.3644C32.8544 9.06652 30.698 6.81164 26.8276 6.47582L26.8296 8.01504C26.8296 8.87462 26.1602 9.55626 25.3112 9.55626C24.4424 9.55826 23.7886 8.8786 23.7886 8.01904L23.7868 6.39986L12.0573 6.41584L12.0592 8.03304C12.0592 8.8946 11.4096 9.57426 10.5407 9.57426C9.67187 9.57626 9.01825 8.8986 9.01825 8.03704L9.01629 6.4978C5.16571 6.8836 3.03505 9.14648 3.04097 13.4823L3.04295 14.104ZM24.4798 23.1895V23.2115C24.4996 24.1311 25.25 24.8287 26.1602 24.8087C27.0488 24.7867 27.7578 24.0251 27.738 23.1055C27.6966 22.2259 26.9836 21.5083 26.097 21.5103C25.1888 21.5303 24.4778 22.2699 24.4798 23.1895ZM26.1108 32.1649C25.2026 32.1449 24.47 31.3873 24.468 30.4679C24.4482 29.5483 25.1768 28.7867 26.0852 28.7647H26.105C27.033 28.7647 27.7854 29.5223 27.7854 30.4619C27.7874 31.4013 27.037 32.1629 26.1108 32.1649ZM16.3442 23.2215C16.3838 24.1411 17.136 24.8587 18.0444 24.8187C18.933 24.7767 19.642 24.0171 19.6024 23.0975C19.5806 22.1979 18.85 21.4983 17.9614 21.5003C17.0532 21.5403 16.3422 22.3019 16.3442 23.2215ZM18.0524 32.0751C17.144 32.1151 16.3936 31.3973 16.3522 30.4779C16.3522 29.5583 17.061 28.7987 17.9694 28.7567C18.858 28.7547 19.5906 29.4543 19.6104 30.3519C19.6518 31.2735 18.941 32.0331 18.0524 32.0751ZM8.20865 23.2915C8.24815 24.2109 9.00049 24.9307 9.90883 24.8887C10.7974 24.8487 11.5063 24.0871 11.4649 23.1675C11.4451 22.2679 10.7145 21.5683 9.82391 21.5703C8.91557 21.6103 8.20667 22.3719 8.20865 23.2915ZM9.91673 32.0851C9.00839 32.1271 8.25801 31.4073 8.21655 30.4879C8.21457 29.5683 8.92545 28.8067 9.83379 28.7667C10.7224 28.7647 11.455 29.4643 11.4747 30.3639C11.5162 31.2835 10.8073 32.0451 9.91673 32.0851Z" fill="white"/>
</svg>
